<?xml version="1.0" encoding="UTF-8" standalone="no"?>
<!-- Created with Inkscape (http://www.inkscape.org/) -->

<svg
   width="71.275124"
   height="20.661921"
   viewBox="0 0 18.858211 5.4667997"
   version="1.1"
   id="svg5"
   xmlns="http://www.w3.org/2000/svg"
   xmlns:svg="http://www.w3.org/2000/svg">
  <defs
     id="defs2" />
  <g
     aria-label="Kereta."
     transform="matrix(0.98751065,0,0,1.0126473,-0.55232647,-1.1946546)"
     id="text2538"
     style="font-weight:bold;font-size:10.5833px;line-height:0px;font-family:'Chakra Petch';-inkscape-font-specification:'Chakra Petch, Bold';letter-spacing:-0.529167px;display:none;stroke-width:0.563183">
    <text
       xml:space="preserve"
       style="font-weight:bold;font-size:7.40833px;font-family:'Chakra Petch';-inkscape-font-specification:'Chakra Petch, Bold';letter-spacing:-0.264583px;word-spacing:0px;fill:#121519;fill-opacity:1;stroke:#ffffff;stroke-width:4"
       x="0.020905074"
       y="6.582531"
       id="text12505"
       transform="scale(1.0126473,0.98751065)"><tspan
         id="tspan12503"
         style="font-style:normal;font-variant:normal;font-weight:600;font-stretch:normal;font-size:7.40833px;font-family:Inter;-inkscape-font-specification:'Inter Semi-Bold';fill:#121519;fill-opacity:1;stroke:none;stroke-width:4"
         x="0.020905074"
         y="6.582531"
         dx="0">Deco</tspan></text>
  </g>
  <g
     aria-label="Kereta."
     transform="matrix(0.98751065,0,0,1.0126473,-0.55232647,-1.1946546)"
     id="g18554"
     style="font-weight:bold;font-size:10.5833px;line-height:0px;font-family:'Chakra Petch';-inkscape-font-specification:'Chakra Petch, Bold';letter-spacing:-0.529167px;display:none;stroke-width:0.563183">
    <g
       aria-label="Deco"
       transform="scale(1.0126473,0.98751065)"
       id="text18552"
       style="font-size:7.40833px;letter-spacing:-0.264583px;word-spacing:0px;display:none;fill:#121519;stroke:#ffffff;stroke-width:4">
      <path
         d="M 2.3991474,6.582531 H 0.48918729 V 1.1946546 H 2.4149322 q 0.8129168,0 1.399585,0.3235883 0.5866682,0.3209575 0.9023641,0.9234105 0.3183267,0.6024529 0.3183267,1.4416778 0,0.8418557 -0.3183267,1.4469395 Q 4.4011854,5.9353544 3.8092556,6.2589427 3.2199566,6.582531 2.3991474,6.582531 Z M 1.6283233,5.6065045 H 2.351793 q 0.5051134,0 0.8497481,-0.1788943 Q 3.5488065,5.2460851 3.7224393,4.86725 3.8987028,4.4857842 3.8987028,3.8833312 q 0,-0.5971914 -0.1762635,-0.9760264 Q 3.5488065,2.5284697 3.2041719,2.3495754 2.8595372,2.1706811 2.3544238,2.1706811 H 1.6283233 Z"
         style="font-family:Inter;-inkscape-font-specification:'Inter Bold';stroke:none"
         id="path18783" />
      <path
         d="m 7.4329884,6.6614549 q -0.6234994,0 -1.073366,-0.2525567 Q 5.9123865,6.1537107 5.670353,5.6880593 5.4283195,5.2197771 5.4283195,4.5804929 q 0,-0.6234993 0.2420335,-1.0944123 0.2420335,-0.4709131 0.681377,-0.733993 0.4419742,-0.2630799 1.0365348,-0.2630799 0.3998814,0 0.7445161,0.1289092 0.3472655,0.1262783 0.6050838,0.3814658 0.2604491,0.2551875 0.405143,0.641915 0.1446939,0.3840967 0.1446939,0.8997333 V 4.8488344 H 5.8755553 V 4.1543035 h 2.3571959 q 0,-0.2420335 -0.1052319,-0.4288202 Q 8.0222873,3.5386965 7.8355006,3.4334646 7.6513447,3.3256018 7.4066804,3.3256018 q -0.2551875,0 -0.4524975,0.118386 Q 6.7595038,3.5597429 6.6490103,3.7570529 6.5385167,3.951732 6.5358859,4.1911347 v 0.6603305 q 0,0.2999111 0.1104936,0.5182674 0.1131243,0.2183564 0.3183266,0.3367423 0.2052024,0.118386 0.4866978,0.118386 0.1867868,0 0.3420039,-0.052616 Q 7.948625,5.7196289 8.0591185,5.6143969 8.1696121,5.509165 8.2274896,5.3565786 l 1.0365349,0.068401 Q 9.1851005,5.7985529 8.9404362,6.0774176 8.6984027,6.3536515 8.314306,6.5088686 7.9328402,6.6614549 7.4329884,6.6614549 Z"
         style="font-family:Inter;-inkscape-font-specification:'Inter Bold';stroke:none"
         id="path18785" />
      <path
         d="m 11.580241,6.6614549 q -0.620869,0 -1.068105,-0.2630799 Q 10.067531,6.1326643 9.8281287,5.6617513 9.5913568,5.1908383 9.5913568,4.5778621 q 0,-0.6208685 0.2394027,-1.0891507 0.2420335,-0.4709131 0.6866385,-0.733993 0.444605,-0.2657107 1.057581,-0.2657107 0.528791,0 0.926042,0.1920484 0.39725,0.1920483 0.62876,0.5393138 0.231511,0.3472654 0.255188,0.8155477 H 12.327388 Q 12.282664,3.7333757 12.090616,3.5492197 11.901198,3.362433 11.593395,3.362433 q -0.260449,0 -0.455128,0.1420632 -0.192049,0.1394323 -0.299911,0.4077738 -0.107863,0.2683415 -0.107863,0.6498073 0,0.3867275 0.105232,0.6576998 0.107863,0.2709723 0.302542,0.4130354 0.194679,0.1420632 0.455128,0.1420632 0.192048,0 0.344635,-0.078924 0.155217,-0.078924 0.255187,-0.2288795 0.102601,-0.1525863 0.134171,-0.3656811 h 1.057581 q -0.02631,0.4630207 -0.252557,0.8155477 -0.223618,0.3498963 -0.618237,0.5472062 -0.39462,0.1973099 -0.933934,0.1973099 z"
         style="font-family:Inter;-inkscape-font-specification:'Inter Bold';stroke:none"
         id="path18787" />
      <path
         d="m 15.666989,6.6614549 q -0.612976,0 -1.060212,-0.2604491 -0.444605,-0.2630799 -0.686639,-0.7313621 -0.242033,-0.470913 -0.242033,-1.0917816 0,-0.6261301 0.242033,-1.0944123 0.242034,-0.4709131 0.686639,-0.7313622 0.447236,-0.2630799 1.060212,-0.2630799 0.612976,0 1.057581,0.2630799 0.447236,0.2604491 0.68927,0.7313622 0.242033,0.4682822 0.242033,1.0944123 0,0.6208686 -0.242033,1.0917816 -0.242034,0.4682822 -0.68927,0.7313621 -0.444605,0.2604491 -1.057581,0.2604491 z m 0.0053,-0.8681636 q 0.278864,0 0.465651,-0.157848 0.186787,-0.1604787 0.281495,-0.4367126 0.09734,-0.2762339 0.09734,-0.628761 0,-0.352527 -0.09734,-0.6287609 -0.09471,-0.2762339 -0.281495,-0.4367126 -0.186787,-0.1604788 -0.465651,-0.1604788 -0.281496,0 -0.473544,0.1604788 -0.189418,0.1604787 -0.286757,0.4367126 -0.09471,0.2762339 -0.09471,0.6287609 0,0.3525271 0.09471,0.628761 0.09734,0.2762339 0.286757,0.4367126 0.192048,0.157848 0.473544,0.157848 z"
         style="font-family:Inter;-inkscape-font-specification:'Inter Bold';stroke:none"
         id="path18789" />
    </g>
    <ellipse
       style="opacity:1;fill:#649aaa;fill-opacity:1;stroke:none;stroke-width:4.7643"
       id="path18677"
       cx="-19.015499"
       cy="5.9463229"
       rx="0.64052987"
       ry="0.62078822"
       transform="scale(-1,1)" />
  </g>
  <g
     aria-label="Kereta."
     transform="matrix(0.98751065,0,0,1.0126473,-0.55232647,-1.1946546)"
     id="g18910"
     style="font-weight:bold;font-size:10.5833px;line-height:0px;font-family:'Chakra Petch';-inkscape-font-specification:'Chakra Petch, Bold';letter-spacing:-0.529167px;display:inline;stroke-width:0.563183">
    <g
       aria-label="Deco"
       transform="scale(1.0126473,0.98751065)"
       id="text18908"
       style="font-size:7.40833px;letter-spacing:-0.264583px;word-spacing:0px;fill:#121519;stroke:#ffffff;stroke-width:4">
      <path
         d="M 2.378101,6.582531 H 0.55232647 V 1.1946546 H 2.4149322 q 0.8023936,0 1.3785386,0.3235883 0.5787758,0.3209575 0.8892101,0.9234105 0.3104343,0.6024529 0.3104343,1.4416778 0,0.8418557 -0.3130651,1.4469395 Q 4.3696158,5.9353544 3.7829476,6.2589427 3.1989103,6.582531 2.378101,6.582531 Z M 1.5283529,5.7380445 h 0.8023937 q 0.562991,0 0.9391952,-0.2052023 Q 3.6461461,5.3250091 3.8355636,4.9146044 4.0249811,4.501569 4.0249811,3.8833312 q 0,-0.6182378 -0.1894175,-1.0260116 Q 3.6461461,2.446915 3.2752034,2.2443434 2.9068916,2.0391411 2.3596854,2.0391411 H 1.5283529 Z"
         style="font-weight:600;font-family:Inter;-inkscape-font-specification:'Inter Semi-Bold';stroke:none"
         id="path18912" />
      <path
         d="m 7.4014109,6.6614549 q -0.6077146,0 -1.0496888,-0.2525567 Q 5.9123787,6.1537107 5.6756067,5.6880593 5.4388348,5.2197771 5.4388348,4.5857545 q 0,-0.6234993 0.2367719,-1.0944123 0.2394028,-0.4735439 0.668223,-0.7366238 0.4288202,-0.2657107 1.007596,-0.2657107 0.3735735,0 0.7050541,0.1210168 0.3341115,0.118386 0.589299,0.3683119 0.2578183,0.2499259 0.4051431,0.6366533 0.1473247,0.3840967 0.1473247,0.9155181 V 4.8225264 H 5.8860707 V 4.1806115 H 8.2853593 Q 8.2827286,3.9070084 8.1669734,3.6939137 8.0512182,3.4781882 7.8433851,3.3545406 7.6381828,3.2308931 7.3645797,3.2308931 q -0.2920187,0 -0.5130058,0.1420631 Q 6.6305868,3.5123886 6.5069392,3.7412681 6.3859225,3.9675168 6.3832917,4.2384891 v 0.5603602 q 0,0.352527 0.1289091,0.6050837 0.1289092,0.2499259 0.3604195,0.3840967 0.2315103,0.1315399 0.5419446,0.1315399 0.2078331,0 0.3762042,-0.057878 Q 7.9591403,5.8011837 8.0827878,5.6854285 8.2064354,5.5696734 8.2695746,5.3986714 l 0.88921,0.09997 Q 9.074599,5.8511689 8.8378271,6.1142488 8.603686,6.3746979 8.238005,6.5193918 7.8723239,6.6614549 7.4014109,6.6614549 Z"
         style="font-weight:600;font-family:Inter;-inkscape-font-specification:'Inter Semi-Bold';stroke:none"
         id="path18914" />
      <path
         d="m 11.501317,6.6614549 q -0.605084,0 -1.039166,-0.2657107 Q 10.0307,6.1300335 9.7965592,5.6617513 9.5650489,5.1908383 9.5650489,4.5778621 q 0,-0.6156069 0.2367719,-1.0865199 0.2367722,-0.4735439 0.6682232,-0.7366238 0.434082,-0.2657107 1.026011,-0.2657107 0.49196,0 0.870795,0.1815252 0.381466,0.1788943 0.607714,0.5077442 0.226249,0.3262191 0.257819,0.7629317 h -0.910257 q -0.05525,-0.2920187 -0.26308,-0.4866978 -0.205202,-0.19731 -0.549837,-0.19731 -0.292018,0 -0.513005,0.157848 -0.220988,0.1552171 -0.344635,0.4472358 -0.121017,0.2920187 -0.121017,0.6997925 0,0.4130355 0.121017,0.7103158 0.121017,0.2946495 0.339373,0.4551282 0.220987,0.1578479 0.518267,0.1578479 0.210464,0 0.376205,-0.078924 0.168371,-0.081555 0.281495,-0.2341411 0.113124,-0.1525864 0.155217,-0.3709427 h 0.910257 q -0.0342,0.4288202 -0.252557,0.7603009 -0.218356,0.3288499 -0.594561,0.5156366 -0.376204,0.1841559 -0.883948,0.184156 z"
         style="font-weight:600;font-family:Inter;-inkscape-font-specification:'Inter Semi-Bold';stroke:none"
         id="path18916" />
      <path
         d="m 15.514404,6.6614549 q -0.59193,0 -1.026011,-0.2604491 -0.434082,-0.2604491 -0.673485,-0.7287313 -0.236772,-0.4682822 -0.236772,-1.0944124 0,-0.6261301 0.236772,-1.0970431 0.239403,-0.4709131 0.673485,-0.7313622 0.434081,-0.2604491 1.026011,-0.2604491 0.59193,0 1.026012,0.2604491 0.434082,0.2604491 0.670854,0.7313622 0.239402,0.470913 0.239402,1.0970431 0,0.6261302 -0.239402,1.0944124 -0.236772,0.4682822 -0.670854,0.7287313 -0.434082,0.2604491 -1.026012,0.2604491 z m 0.0053,-0.7629317 q 0.320957,0 0.536683,-0.1762635 0.215725,-0.1788943 0.320957,-0.4788054 0.107863,-0.2999111 0.107863,-0.668223 0,-0.3709426 -0.107863,-0.6708537 -0.105232,-0.3025419 -0.320957,-0.4814362 -0.215726,-0.1788943 -0.536683,-0.1788943 -0.32885,0 -0.547206,0.1788943 -0.215726,0.1788943 -0.323589,0.4814362 -0.105232,0.2999111 -0.105232,0.6708537 0,0.3683119 0.105232,0.668223 0.107863,0.2999111 0.323589,0.4788054 0.218356,0.1762635 0.547206,0.1762635 z"
         style="font-weight:600;font-family:Inter;-inkscape-font-specification:'Inter Semi-Bold';stroke:none"
         id="path18918" />
    </g>
    <ellipse
       style="font-weight:bold;font-size:10.5833px;line-height:0px;font-family:'Chakra Petch';-inkscape-font-specification:'Chakra Petch, Bold';letter-spacing:-0.529167px;display:inline;opacity:1;fill:#649aaa;fill-opacity:1;stroke:none;stroke-width:4.7643"
       id="ellipse18921"
       cx="-19.015499"
       cy="5.9463229"
       rx="0.64052987"
       ry="0.62078822"
       transform="scale(-0.99999999,1)" />
  </g>
</svg>
